<svg width="99" height="29" viewBox="0 0 99 29" fill="none" xmlns="http://www.w3.org/2000/svg">
<path d="M53.6682 25.4442H49.3414L42.659 16.1977L41.2969 17.8483V25.4442H37.9637V3.00918H41.2969V12.6722L49.3735 3.00918H53.7323L44.8544 13.6017L53.6682 25.4442Z" fill="#000000"/>
<path d="M65.7601 9.41918H69.0933V25.4442H65.7441L65.6159 23.1205C65.1458 23.9432 64.5101 24.6055 63.7089 25.1076C62.9076 25.6098 61.9622 25.8608 60.8725 25.8608C59.6973 25.8608 58.5916 25.6418 57.5553 25.2038C56.519 24.7551 55.6056 24.1355 54.815 23.3449C54.0351 22.5543 53.4262 21.6462 52.9882 20.6206C52.5502 19.5844 52.3311 18.4733 52.3311 17.2874C52.3311 16.1443 52.5448 15.0707 52.9721 14.0664C53.3995 13.0515 53.9924 12.1648 54.7509 11.4063C55.5094 10.6478 56.3855 10.0548 57.379 9.6275C58.3833 9.18948 59.4569 8.97048 60.6 8.97048C61.7645 8.97048 62.7901 9.23756 63.6768 9.77173C64.5742 10.2952 65.3167 10.9683 65.9043 11.7909L65.7601 9.41918ZM60.7923 22.6398C61.7325 22.6398 62.5551 22.4101 63.2602 21.9507C63.9653 21.4807 64.5101 20.8503 64.8947 20.0598C65.29 19.2692 65.4877 18.3932 65.4877 17.4317C65.4877 16.4595 65.29 15.5781 64.8947 14.7875C64.4995 13.997 63.9493 13.372 63.2442 12.9126C62.5498 12.4426 61.7325 12.2075 60.7923 12.2075C59.8629 12.2075 59.0136 12.4426 58.2444 12.9126C57.4752 13.3827 56.8662 14.013 56.4175 14.8036C55.9688 15.5941 55.7445 16.4702 55.7445 17.4317C55.7445 18.4039 55.9742 19.2852 56.4335 20.0758C56.9036 20.8557 57.5179 21.4807 58.2764 21.9507C59.0456 22.4101 59.8843 22.6398 60.7923 22.6398Z" fill="#000000"/>
<path d="M71.1342 25.4442V1.40668H74.4674V25.4442H71.1342Z" fill="#000000"/>
<path d="M77.0197 9.41918H80.3529V25.4442H77.0197V9.41918ZM78.7183 7.09555C78.2055 7.09555 77.7782 6.92996 77.4363 6.59878C77.0944 6.26759 76.9235 5.85094 76.9235 5.34883C76.9235 4.85739 77.0944 4.44609 77.4363 4.1149C77.7782 3.77304 78.2002 3.6021 78.7023 3.6021C79.1937 3.6021 79.6104 3.77304 79.9522 4.1149C80.2941 4.44609 80.465 4.85739 80.465 5.34883C80.465 5.85094 80.2941 6.26759 79.9522 6.59878C79.621 6.92996 79.2097 7.09555 78.7183 7.09555Z" fill="#000000"/>
<path d="M95.0908 9.41918H98.424V25.4442H95.0748L94.9466 23.1205C94.4765 23.9432 93.8409 24.6055 93.0396 25.1076C92.2384 25.6098 91.2929 25.8608 90.2032 25.8608C89.028 25.8608 87.9223 25.6418 86.886 25.2038C85.8498 24.7551 84.9363 24.1355 84.1458 23.3449C83.3659 22.5543 82.7569 21.6462 82.3189 20.6206C81.8809 19.5844 81.6619 18.4733 81.6619 17.2874C81.6619 16.1443 81.8756 15.0707 82.3029 14.0664C82.7302 13.0515 83.3231 12.1648 84.0817 11.4063C84.8402 10.6478 85.7162 10.0548 86.7098 9.6275C87.714 9.18948 88.7877 8.97048 89.9308 8.97048C91.0953 8.97048 92.1209 9.23756 93.0076 9.77173C93.905 10.2952 94.6475 10.9683 95.2351 11.7909L95.0908 9.41918ZM90.1231 22.6398C91.0632 22.6398 91.8858 22.4101 92.5909 21.9507C93.296 21.4807 93.8409 20.8503 94.2255 20.0598C94.6208 19.2692 94.8184 18.3932 94.8184 17.4317C94.8184 16.4595 94.6208 15.5781 94.2255 14.7875C93.8302 13.997 93.28 13.372 92.5749 12.9126C91.8805 12.4426 91.0632 12.2075 90.1231 12.2075C89.1936 12.2075 88.3443 12.4426 87.5751 12.9126C86.8059 13.3827 86.197 14.013 85.7483 14.8036C85.2996 15.5941 85.0752 16.4702 85.0752 17.4317C85.0752 18.4039 85.3049 19.2852 85.7643 20.0758C86.2344 20.8557 86.8486 21.4807 87.6072 21.9507C88.3764 22.4101 89.215 22.6398 90.1231 22.6398Z" fill="#000000"/>
<path d="M14.0592 28.1211C13.4934 28.1211 12.9276 28.0323 12.3839 27.8659L5.97147 25.8687C4.19639 25.314 2.80961 23.9271 2.2549 22.1518L0.257941 15.7387C-0.0859803 14.6403 -0.0859803 13.4864 0.257941 12.3879L2.2549 5.94155C2.80961 4.1552 4.20748 2.76829 5.99365 2.21352L12.4061 0.249645C13.4934 -0.0832149 14.6361 -0.0832149 15.7233 0.249645L22.1579 2.22462C23.9441 2.77938 25.342 4.17739 25.8967 5.96373L27.8715 12.399C28.2043 13.4864 28.2043 14.6292 27.8715 15.7165L25.8967 22.1296C25.3531 23.916 23.9552 25.314 22.169 25.8687L15.7233 27.8659C15.1797 28.0323 14.6139 28.1211 14.0481 28.1211H14.0592ZM14.0592 2.35776C13.7374 2.35776 13.4046 2.40214 13.094 2.502L6.6815 4.46587C5.63864 4.78763 4.82876 5.5976 4.50703 6.64056L2.51007 13.0869C2.31037 13.7305 2.31037 14.4073 2.51007 15.0397L4.50703 21.4528C4.82876 22.4847 5.63864 23.3057 6.6815 23.6275L13.094 25.6246C13.7374 25.8244 14.4031 25.8244 15.0465 25.6246L21.4923 23.6275C22.5351 23.3057 23.345 22.4847 23.6668 21.4528L25.6304 15.0397C25.8301 14.4073 25.8301 13.7416 25.6304 13.098L23.6557 6.66274C23.3339 5.61978 22.513 4.79874 21.4701 4.47697L15.0354 2.502C14.7137 2.40214 14.392 2.35776 14.0703 2.35776H14.0592Z" fill="#000000"/>
<path d="M16.5997 16.1825L21.5033 14.6625C22.0913 14.4738 22.0913 13.6417 21.5033 13.4531L16.5997 11.9441C16.4 11.8775 16.2446 11.7222 16.1781 11.5225L14.6693 6.61836C14.4918 6.03031 13.6486 6.01921 13.46 6.61836L11.9401 11.5225C11.8735 11.7222 11.7182 11.8775 11.5185 11.9441L6.60376 13.4531C6.01577 13.6306 6.00467 14.4738 6.60376 14.6625L11.5185 16.1936C11.7182 16.2602 11.8735 16.4155 11.929 16.6041L13.46 21.5194C13.6486 22.1074 14.4807 22.1074 14.6693 21.5194L16.1781 16.6041C16.2446 16.4044 16.4 16.2491 16.5997 16.1825Z" fill="#000000"/>
</svg>


